<mxfile host="Electron" agent="Mozilla/5.0 (Windows NT 10.0; Win64; x64) AppleWebKit/537.36 (KHTML, like Gecko) draw.io/26.0.4 Chrome/128.0.6613.186 Electron/32.2.5 Safari/537.36" version="26.0.4">
  <diagram name="Strona-1" id="BlxfSam2rkbnxm6wSG61">
    <mxGraphModel dx="2048" dy="717" grid="1" gridSize="10" guides="1" tooltips="1" connect="1" arrows="1" fold="1" page="1" pageScale="1" pageWidth="827" pageHeight="1169" math="0" shadow="0">
      <root>
        <mxCell id="0" />
        <mxCell id="1" parent="0" />
        <mxCell id="UxKqeO8rbyEFabwB4SNw-1" value="Home" style="rounded=1;whiteSpace=wrap;html=1;" vertex="1" parent="1">
          <mxGeometry x="363.25" y="30" width="100" height="50" as="geometry" />
        </mxCell>
        <mxCell id="UxKqeO8rbyEFabwB4SNw-3" value="" style="endArrow=none;html=1;rounded=0;" edge="1" parent="1">
          <mxGeometry width="50" height="50" relative="1" as="geometry">
            <mxPoint x="-40" y="90" as="sourcePoint" />
            <mxPoint x="690" y="90" as="targetPoint" />
          </mxGeometry>
        </mxCell>
        <mxCell id="UxKqeO8rbyEFabwB4SNw-4" value="" style="endArrow=none;html=1;rounded=0;exitX=0.5;exitY=0;exitDx=0;exitDy=0;" edge="1" parent="1" source="UxKqeO8rbyEFabwB4SNw-10">
          <mxGeometry width="50" height="50" relative="1" as="geometry">
            <mxPoint x="-40" y="100" as="sourcePoint" />
            <mxPoint x="-40" y="90" as="targetPoint" />
          </mxGeometry>
        </mxCell>
        <mxCell id="UxKqeO8rbyEFabwB4SNw-5" value="" style="endArrow=none;html=1;rounded=0;" edge="1" parent="1">
          <mxGeometry width="50" height="50" relative="1" as="geometry">
            <mxPoint x="690" y="170" as="sourcePoint" />
            <mxPoint x="690" y="90" as="targetPoint" />
          </mxGeometry>
        </mxCell>
        <mxCell id="UxKqeO8rbyEFabwB4SNw-6" value="" style="endArrow=none;html=1;rounded=0;exitX=0.5;exitY=0;exitDx=0;exitDy=0;" edge="1" parent="1" source="UxKqeO8rbyEFabwB4SNw-14">
          <mxGeometry width="50" height="50" relative="1" as="geometry">
            <mxPoint x="120" y="170" as="sourcePoint" />
            <mxPoint x="120" y="90" as="targetPoint" />
          </mxGeometry>
        </mxCell>
        <mxCell id="UxKqeO8rbyEFabwB4SNw-8" value="" style="endArrow=none;html=1;rounded=0;" edge="1" parent="1">
          <mxGeometry width="50" height="50" relative="1" as="geometry">
            <mxPoint x="280" y="170" as="sourcePoint" />
            <mxPoint x="280" y="90" as="targetPoint" />
          </mxGeometry>
        </mxCell>
        <mxCell id="UxKqeO8rbyEFabwB4SNw-10" value="About me" style="rounded=1;whiteSpace=wrap;html=1;" vertex="1" parent="1">
          <mxGeometry x="-90.5" y="120" width="100" height="40" as="geometry" />
        </mxCell>
        <mxCell id="UxKqeO8rbyEFabwB4SNw-11" value="Contact me" style="rounded=1;whiteSpace=wrap;html=1;" vertex="1" parent="1">
          <mxGeometry x="70" y="220" width="100" height="40" as="geometry" />
        </mxCell>
        <mxCell id="UxKqeO8rbyEFabwB4SNw-12" value="Projects" style="rounded=1;whiteSpace=wrap;html=1;" vertex="1" parent="1">
          <mxGeometry x="230" y="170" width="100" height="40" as="geometry" />
        </mxCell>
        <mxCell id="UxKqeO8rbyEFabwB4SNw-15" value="" style="verticalLabelPosition=bottom;html=1;verticalAlign=top;align=center;strokeColor=none;fillColor=#00BEF2;shape=mxgraph.azure.cloud_services_configuration_file;pointerEvents=1;" vertex="1" parent="1">
          <mxGeometry x="265.75" y="150" width="28.5" height="30" as="geometry" />
        </mxCell>
        <mxCell id="UxKqeO8rbyEFabwB4SNw-16" value="" style="verticalLabelPosition=bottom;html=1;verticalAlign=top;align=center;strokeColor=none;fillColor=#00BEF2;shape=mxgraph.azure.cloud_services_configuration_file;pointerEvents=1;" vertex="1" parent="1">
          <mxGeometry x="399" y="10" width="28.5" height="30" as="geometry" />
        </mxCell>
        <mxCell id="UxKqeO8rbyEFabwB4SNw-17" value="" style="endArrow=none;html=1;rounded=0;" edge="1" parent="1">
          <mxGeometry width="50" height="50" relative="1" as="geometry">
            <mxPoint x="-40" y="170" as="sourcePoint" />
            <mxPoint x="-40" y="170" as="targetPoint" />
          </mxGeometry>
        </mxCell>
        <mxCell id="UxKqeO8rbyEFabwB4SNw-13" value="" style="verticalLabelPosition=bottom;html=1;verticalAlign=top;align=center;strokeColor=none;fillColor=#00BEF2;shape=mxgraph.azure.cloud_services_configuration_file;pointerEvents=1;" vertex="1" parent="1">
          <mxGeometry x="-54.75" y="100" width="28.5" height="30" as="geometry" />
        </mxCell>
        <mxCell id="UxKqeO8rbyEFabwB4SNw-18" value="" style="endArrow=none;html=1;rounded=0;entryX=0.5;entryY=1;entryDx=0;entryDy=0;" edge="1" parent="1" source="UxKqeO8rbyEFabwB4SNw-21" target="UxKqeO8rbyEFabwB4SNw-10">
          <mxGeometry width="50" height="50" relative="1" as="geometry">
            <mxPoint x="-140" y="250" as="sourcePoint" />
            <mxPoint x="-90" y="200" as="targetPoint" />
          </mxGeometry>
        </mxCell>
        <mxCell id="UxKqeO8rbyEFabwB4SNw-19" value="Download&lt;div&gt;Resume&lt;/div&gt;" style="ellipse;whiteSpace=wrap;html=1;" vertex="1" parent="1">
          <mxGeometry x="-70.5" y="200" width="60" height="60" as="geometry" />
        </mxCell>
        <mxCell id="UxKqeO8rbyEFabwB4SNw-23" value="" style="dashed=0;outlineConnect=0;html=1;align=center;labelPosition=center;verticalLabelPosition=bottom;verticalAlign=top;shape=mxgraph.weblogos.github" vertex="1" parent="1">
          <mxGeometry y="280" width="60" height="60" as="geometry" />
        </mxCell>
        <mxCell id="UxKqeO8rbyEFabwB4SNw-25" value="" style="dashed=0;outlineConnect=0;html=1;align=center;labelPosition=center;verticalLabelPosition=bottom;verticalAlign=top;shape=mxgraph.webicons.linkedin;fillColor=#0095DB;gradientColor=#006391" vertex="1" parent="1">
          <mxGeometry x="200" y="280" width="60" height="60" as="geometry" />
        </mxCell>
        <mxCell id="UxKqeO8rbyEFabwB4SNw-27" value="" style="endArrow=none;html=1;rounded=0;entryX=0.5;entryY=1;entryDx=0;entryDy=0;" edge="1" parent="1" source="UxKqeO8rbyEFabwB4SNw-19" target="UxKqeO8rbyEFabwB4SNw-21">
          <mxGeometry width="50" height="50" relative="1" as="geometry">
            <mxPoint x="-40" y="200" as="sourcePoint" />
            <mxPoint x="-40" y="160" as="targetPoint" />
          </mxGeometry>
        </mxCell>
        <mxCell id="UxKqeO8rbyEFabwB4SNw-21" value="Download" style="rounded=1;fillColor=#0057D8;align=center;strokeColor=none;html=1;whiteSpace=wrap;fontColor=#ffffff;fontSize=12;sketch=0;" vertex="1" parent="1">
          <mxGeometry x="-71.5" y="180" width="61" height="25.16" as="geometry" />
        </mxCell>
        <mxCell id="UxKqeO8rbyEFabwB4SNw-28" value="" style="endArrow=none;html=1;rounded=0;exitX=0.5;exitY=0;exitDx=0;exitDy=0;" edge="1" parent="1" source="UxKqeO8rbyEFabwB4SNw-11" target="UxKqeO8rbyEFabwB4SNw-14">
          <mxGeometry width="50" height="50" relative="1" as="geometry">
            <mxPoint x="120" y="220" as="sourcePoint" />
            <mxPoint x="120" y="90" as="targetPoint" />
          </mxGeometry>
        </mxCell>
        <mxCell id="UxKqeO8rbyEFabwB4SNw-14" value="" style="verticalLabelPosition=bottom;html=1;verticalAlign=top;align=center;strokeColor=none;fillColor=#00BEF2;shape=mxgraph.azure.cloud_services_configuration_file;pointerEvents=1;" vertex="1" parent="1">
          <mxGeometry x="105.75" y="200" width="28.5" height="30" as="geometry" />
        </mxCell>
        <mxCell id="UxKqeO8rbyEFabwB4SNw-32" value="Contact Form" style="shape=parallelogram;perimeter=parallelogramPerimeter;whiteSpace=wrap;html=1;fixedSize=1;rounded=1;" vertex="1" parent="1">
          <mxGeometry x="70" y="345" width="100" height="50" as="geometry" />
        </mxCell>
        <mxCell id="UxKqeO8rbyEFabwB4SNw-34" value="Form" style="html=1;whiteSpace=wrap;strokeColor=none;fillColor=#0079D6;labelPosition=center;verticalLabelPosition=middle;verticalAlign=top;align=center;fontSize=12;outlineConnect=0;spacingTop=-6;fontColor=#FFFFFF;sketch=0;shape=mxgraph.sitemap.form;" vertex="1" parent="1">
          <mxGeometry x="92" y="320" width="56" height="32" as="geometry" />
        </mxCell>
        <mxCell id="UxKqeO8rbyEFabwB4SNw-38" value="" style="endArrow=none;html=1;rounded=0;entryX=0;entryY=1;entryDx=0;entryDy=0;" edge="1" parent="1" source="UxKqeO8rbyEFabwB4SNw-23" target="UxKqeO8rbyEFabwB4SNw-11">
          <mxGeometry width="50" height="50" relative="1" as="geometry">
            <mxPoint x="30" y="250" as="sourcePoint" />
            <mxPoint x="40" y="240" as="targetPoint" />
          </mxGeometry>
        </mxCell>
        <mxCell id="UxKqeO8rbyEFabwB4SNw-39" value="" style="endArrow=none;html=1;rounded=0;entryX=1;entryY=1;entryDx=0;entryDy=0;" edge="1" parent="1" source="UxKqeO8rbyEFabwB4SNw-25" target="UxKqeO8rbyEFabwB4SNw-11">
          <mxGeometry width="50" height="50" relative="1" as="geometry">
            <mxPoint x="300" y="300" as="sourcePoint" />
            <mxPoint x="350" y="250" as="targetPoint" />
          </mxGeometry>
        </mxCell>
        <mxCell id="UxKqeO8rbyEFabwB4SNw-40" value="" style="endArrow=none;html=1;rounded=0;exitX=0.5;exitY=0;exitDx=0;exitDy=0;entryX=0.5;entryY=1;entryDx=0;entryDy=0;" edge="1" parent="1" source="UxKqeO8rbyEFabwB4SNw-32" target="UxKqeO8rbyEFabwB4SNw-11">
          <mxGeometry width="50" height="50" relative="1" as="geometry">
            <mxPoint x="100" y="330" as="sourcePoint" />
            <mxPoint x="150" y="280" as="targetPoint" />
          </mxGeometry>
        </mxCell>
      </root>
    </mxGraphModel>
  </diagram>
</mxfile>
